<?xml version="1.0" encoding="UTF-8"?>
<svg version="1.1" xmlns="http://www.w3.org/2000/svg" width="64" height="64">
<path d="M0 0 C1.33895632 1.66215268 2.67130142 3.32963607 4 5 C6.90612382 6.58194218 9.91181643 7.81883577 13 9 C13.45375 7.88625 13.9075 6.7725 14.375 5.625 C16 2 16 2 18 0 C24.00458716 -0.54587156 24.00458716 -0.54587156 26.9375 1.0625 C28.6140629 4.11976176 28.36528977 6.5906288 28 10 C26.9375 11.875 26.9375 11.875 25 13 C21.3125 13.6875 21.3125 13.6875 18 14 C18.54140625 14.83917969 18.54140625 14.83917969 19.09375 15.6953125 C23.77567248 23.78463412 24.47398919 31.79417052 22.3125 40.89453125 C21.63506776 42.96265372 20.83209141 44.98911242 20 47 C21.134375 47.45375 22.26875 47.9075 23.4375 48.375 C27 50 27 50 28 52 C28.3125 55.4375 28.3125 55.4375 28 59 C25.76679398 61.66266871 24.3799883 61.95347082 20.9375 62.375 C18 62 18 62 16.125 60.875 C14.5317901 58.21965017 14.79785968 56.03210482 15 53 C12.33591363 53.53281727 10.24315657 54.34931235 7.75 55.5 C5.04943498 56.70477793 2.69076495 57.26518001 -0.25 57.5625 C-4.07331829 57.72059658 -4.07331829 57.72059658 -7 60 C-9.875 60 -9.875 60 -13 59 C-15.5 56.25 -15.5 56.25 -16.72265625 54.58984375 C-18.10970739 52.72715358 -18.10970739 52.72715358 -20.9375 50.8125 C-28.62860077 44.71129086 -32.40945381 32.86919997 -33.75 23.4375 C-33.86859375 22.67308594 -33.9871875 21.90867187 -34.109375 21.12109375 C-34 19 -34 19 -32.74609375 17.234375 C-29.97536819 15.27565178 -27.28134837 15.8142633 -24 16 C-23.76152344 15.40703125 -23.52304687 14.8140625 -23.27734375 14.203125 C-21.72989801 11.53413602 -20.13804513 10.42473871 -17.5625 8.75 C-16.78003906 8.22921875 -15.99757813 7.7084375 -15.19140625 7.171875 C-13 6 -13 6 -10 6 C-9.71125 5.195625 -9.4225 4.39125 -9.125 3.5625 C-7.22559427 -0.76392416 -4.40714271 -0.52885713 0 0 Z M-29 19 C-29.66 20.32 -30.32 21.64 -31 23 C-30.34 23.66 -29.68 24.32 -29 25 C-28.34 23.02 -27.68 21.04 -27 19 C-27.66 19 -28.32 19 -29 19 Z " fill="#50B3DC" transform="translate(35,1)"/>
<path d="M0 0 C0.99 0.33 1.98 0.66 3 1 C3.969375 0.938125 4.93875 0.87625 5.9375 0.8125 C9 1 9 1 11.4375 2.5625 C13 5 13 5 12.75 8.75 C12.5025 9.8225 12.255 10.895 12 12 C12.99 12 13.98 12 15 12 C15 13.98 15 15.96 15 18 C15.66 18 16.32 18 17 18 C17.21278058 22.46839215 16.59138085 25.82262526 15 30 C16.134375 30.45375 17.26875 30.9075 18.4375 31.375 C22 33 22 33 23 35 C23.3125 38.4375 23.3125 38.4375 23 42 C20.76679398 44.66266871 19.3799883 44.95347082 15.9375 45.375 C13 45 13 45 11.125 43.875 C9.5317901 41.21965017 9.79785968 39.03210482 10 36 C7.15449988 36.66010476 4.47674001 37.51724966 1.75 38.5625 C1.04359375 38.83191406 0.3371875 39.10132813 -0.390625 39.37890625 C-0.92171875 39.58386719 -1.4528125 39.78882813 -2 40 C-2 39.34 -2 38.68 -2 38 C-1.34 38 -0.68 38 0 38 C0 37.34 0 36.68 0 36 C-1.32 35.34 -2.64 34.68 -4 34 C-2.02 33.505 -2.02 33.505 0 33 C0.33 31.35 0.66 29.7 1 28 C-0.65 27.67 -2.3 27.34 -4 27 C-4 25.35 -4 23.7 -4 22 C-4.66 22 -5.32 22 -6 22 C-6 23.32 -6 24.64 -6 26 C-6.680625 25.690625 -7.36125 25.38125 -8.0625 25.0625 C-11.00149399 23.85086351 -11.00149399 23.85086351 -14.3125 23.75 C-19.25099097 22.74556116 -22.21829325 20.21199509 -26 17 C-25.75 14.625 -25.75 14.625 -25 12 C-21.75285444 9.7943917 -18.60059681 9.62612588 -14.75 9.375 C-13.67234375 9.30023438 -12.5946875 9.22546875 -11.484375 9.1484375 C-10.25460938 9.07496094 -10.25460938 9.07496094 -9 9 C-9.061875 7.906875 -9.12375 6.81375 -9.1875 5.6875 C-9 2 -9 2 -7.875 0 C-5.03512484 -1.51460008 -3.04559894 -0.76139974 0 0 Z " fill="#CED938" transform="translate(40,18)"/>
<path d="M0 0 C-1.58220587 0.96019364 -3.16581331 1.91807798 -4.75 2.875 C-5.63171875 3.40867187 -6.5134375 3.94234375 -7.421875 4.4921875 C-9.58274093 5.75596666 -11.74570395 6.91498835 -14 8 C-13.96219702 10.37233611 -13.96219702 10.37233611 -13 13 C-8.76932608 16.62629193 -5.41073606 17.31136086 0 18 C2.9375 19.5625 2.9375 19.5625 5 21 C5 19.68 5 18.36 5 17 C5.66 17 6.32 17 7 17 C7 18.65 7 20.3 7 22 C8.65 22.33 10.3 22.66 12 23 C11.505 25.475 11.505 25.475 11 28 C10.01 28.33 9.02 28.66 8 29 C9.32 29.66 10.64 30.32 12 31 C11.505 31.99 11.505 31.99 11 33 C10.34 33 9.68 33 9 33 C9 33.66 9 34.32 9 35 C7.906875 35.12375 6.81375 35.2475 5.6875 35.375 C1.92618198 35.75464801 1.92618198 35.75464801 -1 38 C-3.875 38 -3.875 38 -7 37 C-9.5 34.25 -9.5 34.25 -10.71875 32.59375 C-12.11894393 30.71738081 -12.11894393 30.71738081 -15 28.75 C-19.14300891 25.49784534 -20.92950139 20.7181716 -23 16 C-22.01 15.34 -21.02 14.68 -20 14 C-19.34 13.34 -18.68 12.68 -18 12 C-18.32041397 9.39719432 -18.32041397 9.39719432 -19 7 C-18.21625 6.5875 -17.4325 6.175 -16.625 5.75 C-13.89205358 4.27992178 -13.89205358 4.27992178 -13.1484375 1.94140625 C-12 0 -12 0 -9.6875 -0.64453125 C-8.800625 -0.69996094 -7.91375 -0.75539063 -7 -0.8125 C-6.113125 -0.88082031 -5.22625 -0.94914062 -4.3125 -1.01953125 C-2 -1 -2 -1 0 0 Z " fill="#52ADD2" transform="translate(29,23)"/>
<path d="M0 0 C0.66 0.33 1.32 0.66 2 1 C1.4740625 1.7734375 1.4740625 1.7734375 0.9375 2.5625 C-0.69464782 6.80608433 0.60320067 10.809602 2 15 C0.85546875 16.82421875 0.85546875 16.82421875 -0.8125 18.6875 C-1.62654297 19.62142578 -1.62654297 19.62142578 -2.45703125 20.57421875 C-4 22 -4 22 -6 22 C-6 23.32 -6 24.64 -6 26 C-6.680625 25.690625 -7.36125 25.38125 -8.0625 25.0625 C-11.00149399 23.85086351 -11.00149399 23.85086351 -14.3125 23.75 C-19.25099097 22.74556116 -22.21829325 20.21199509 -26 17 C-25.75 14.625 -25.75 14.625 -25 12 C-21.75285444 9.7943917 -18.60059681 9.62612588 -14.75 9.375 C-13.67234375 9.30023438 -12.5946875 9.22546875 -11.484375 9.1484375 C-10.25460938 9.07496094 -10.25460938 9.07496094 -9 9 C-9.061875 7.906875 -9.12375 6.81375 -9.1875 5.6875 C-9 2 -9 2 -7.875 0 C-5.03853075 -1.5127836 -3.03257035 -0.77427328 0 0 Z " fill="#D2D830" transform="translate(40,18)"/>
<path d="M0 0 C4.55963207 1.27245546 7.36151777 3.0317645 11 6 C13.18214568 6.77833534 13.18214568 6.77833534 15 7 C14.67 7.99 14.34 8.98 14 10 C10.7 10 7.4 10 4 10 C3.67 11.32 3.34 12.64 3 14 C1.625 15.75 1.625 15.75 0 17 C-0.99 17 -1.98 17 -3 17 C-3 17.66 -3 18.32 -3 19 C-2.01 19.33 -1.02 19.66 0 20 C-0.66 20 -1.32 20 -2 20 C-1.67 20.99 -1.34 21.98 -1 23 C-4 25 -4 25 -6.6875 24.625 C-7.8321875 24.315625 -7.8321875 24.315625 -9 24 C-9.12375 22.9275 -9.2475 21.855 -9.375 20.75 C-9.77339909 17.18185277 -9.77339909 17.18185277 -11.0625 14.9375 C-12.40467429 12.16367314 -12.32295278 10.03575614 -12 7 C-10.9375 5.125 -10.9375 5.125 -9 4 C-5.3125 3.8125 -5.3125 3.8125 -2 4 C-1.34 2.68 -0.68 1.36 0 0 Z M-7 7 C-7.66 8.32 -8.32 9.64 -9 11 C-8.34 11.66 -7.68 12.32 -7 13 C-6.34 11.02 -5.68 9.04 -5 7 C-5.66 7 -6.32 7 -7 7 Z " fill="#E26145" transform="translate(13,13)"/>
<path d="M0 0 C0.99 0.33 1.98 0.66 3 1 C3 2.32 3 3.64 3 5 C4.134375 5.45375 5.26875 5.9075 6.4375 6.375 C10 8 10 8 11 10 C11.3125 13.4375 11.3125 13.4375 11 17 C8.76679398 19.66266871 7.3799883 19.95347082 3.9375 20.375 C1 20 1 20 -0.875 18.875 C-2.4682099 16.21965017 -2.20214032 14.03210482 -2 11 C-4.84550012 11.66010476 -7.52325999 12.51724966 -10.25 13.5625 C-10.95640625 13.83191406 -11.6628125 14.10132813 -12.390625 14.37890625 C-12.92171875 14.58386719 -13.4528125 14.78882813 -14 15 C-14 14.34 -14 13.68 -14 13 C-13.34 13 -12.68 13 -12 13 C-11.773125 12.360625 -11.54625 11.72125 -11.3125 11.0625 C-10 9 -10 9 -7.5625 8.1875 C-5 8 -5 8 -2 9 C-0.14223235 5.86501708 0.20140476 3.62528568 0 0 Z " fill="#CAA25A" transform="translate(52,43)"/>
<path d="M0 0 C0.60328125 0.23976562 1.2065625 0.47953125 1.828125 0.7265625 C2.62734375 1.02304687 3.4265625 1.31953125 4.25 1.625 C5.43335938 2.07746094 5.43335938 2.07746094 6.640625 2.5390625 C9.55558037 3.10854054 10.48172389 2.4506905 13 1 C16.5625 0.625 16.5625 0.625 20 1 C22.34949004 3.04633004 22.87878102 4.40905746 23.5 7.4375 C22.75326086 11.26453811 21.09055716 12.71567514 18 15 C15 15.1875 15 15.1875 12 14 C9.5 11.25 9.5 11.25 8.296875 9.62109375 C6.92328474 7.90410593 5.47777257 6.66592184 3.75 5.3125 C1 3 1 3 0 0 Z " fill="#C07657" transform="translate(10,46)"/>
<path d="M0 0 C2.4375 1.5625 2.4375 1.5625 4 4 C4 7.89836419 3.88164129 10.08897066 1.125 12.9375 C-1 14 -1 14 -4 14 C-4 15.32 -4 16.64 -4 18 C-6.96687001 19.64826111 -9.65626525 20.44271087 -13 21 C-12.61585937 20.55269531 -12.23171875 20.10539062 -11.8359375 19.64453125 C-10.37352319 17.81064806 -9.08953331 16.07922891 -8 14 C-8.58333333 11.33333333 -8.58333333 11.33333333 -10 9 C-10.49035658 5.64923002 -10.33918839 4.48269117 -8.375 1.6875 C-5.2935202 -0.50197249 -3.70758991 -0.61793165 0 0 Z " fill="#FAFCF6" transform="translate(49,19)"/>
<path d="M0 0 C3.5625 0.3125 3.5625 0.3125 5.5 1.375 C7.1765629 4.43226176 6.92778977 6.9031288 6.5625 10.3125 C5.04653225 12.70613328 3.8875718 13.18949986 1.25 14.1875 C-2.31981246 14.35353779 -4.39339306 13.08232962 -7.4375 11.3125 C-7.4375 5.5606078 -6.25884553 0.56898596 0 0 Z " fill="#E05D45" transform="translate(56.4375,0.6875)"/>
<path d="M0 0 C1.875 1.125 1.875 1.125 3 3 C3.54400387 6.65259739 3.43774093 8.3433886 1.375 11.4375 C-1 13 -1 13 -4.125 12.875 C-7 12 -7 12 -9 10 C-11.65537372 9.43479997 -14.29144713 9.26211802 -17 9 C-13.375 6 -13.375 6 -10 6 C-9.566875 4.7934375 -9.566875 4.7934375 -9.125 3.5625 C-7.20582652 -0.8089507 -4.42817506 -0.36148368 0 0 Z " fill="#5BA65B" transform="translate(35,1)"/>
<path d="M0 0 C2.18074128 1.56278995 3.22979562 2.99685113 4.58984375 5.30078125 C5.00621094 5.99042969 5.42257813 6.68007813 5.8515625 7.390625 C8.05432066 11.52591449 8.00719662 14.93431799 7.96484375 19.55078125 C7.95582031 20.82308594 7.94679688 22.09539063 7.9375 23.40625 C7.92589844 24.38207031 7.91429688 25.35789062 7.90234375 26.36328125 C7.57234375 25.37328125 7.24234375 24.38328125 6.90234375 23.36328125 C6.24234375 23.36328125 5.58234375 23.36328125 4.90234375 23.36328125 C4.90234375 21.38328125 4.90234375 19.40328125 4.90234375 17.36328125 C3.91234375 17.36328125 2.92234375 17.36328125 1.90234375 17.36328125 C1.99515625 15.72359375 1.99515625 15.72359375 2.08984375 14.05078125 C2.17953505 10.5350421 2.17953505 10.5350421 0.83984375 8.42578125 C-2.09265315 6.81763779 -4.81310669 7.24384308 -8.09765625 7.36328125 C-8.75765625 7.03328125 -9.41765625 6.70328125 -10.09765625 6.36328125 C-10.09765625 5.37328125 -10.09765625 4.38328125 -10.09765625 3.36328125 C-8.85881306 2.63561122 -7.60597284 1.9317331 -6.34765625 1.23828125 C-5.6515625 0.84382812 -4.95546875 0.449375 -4.23828125 0.04296875 C-2.09765625 -0.63671875 -2.09765625 -0.63671875 0 0 Z " fill="#51B7E3" transform="translate(50.09765625,12.63671875)"/>
<path d="M0 0 C4.55963207 1.27245546 7.36151777 3.0317645 11 6 C13.18214568 6.77833534 13.18214568 6.77833534 15 7 C14.67 7.99 14.34 8.98 14 10 C10.7 10 7.4 10 4 10 C3.67 11.32 3.34 12.64 3 14 C1.5625 15.75 1.5625 15.75 0 17 C-0.66 17 -1.32 17 -2 17 C-1.90460937 16.31292969 -1.80921875 15.62585937 -1.7109375 14.91796875 C-1.60007812 14.01691406 -1.48921875 13.11585937 -1.375 12.1875 C-1.25898438 11.29417969 -1.14296875 10.40085937 -1.0234375 9.48046875 C-0.76499257 6.74309609 -0.76499257 6.74309609 -3 4 C-2.01 2.68 -1.02 1.36 0 0 Z " fill="#C9D43A" transform="translate(13,13)"/>
<path d="M0 0 C0.66 0.33 1.32 0.66 2 1 C1.690625 1.5775 1.38125 2.155 1.0625 2.75 C0.07416636 4.84294184 -0.5168613 6.74535275 -1 9 C-3.64 9.33 -6.28 9.66 -9 10 C-9 10.66 -9 11.32 -9 12 C-12.3 12.33 -15.6 12.66 -19 13 C-19.66 12.01 -20.32 11.02 -21 10 C-15.06 9.505 -15.06 9.505 -9 9 C-9.061875 7.906875 -9.12375 6.81375 -9.1875 5.6875 C-9 2 -9 2 -7.875 0 C-5.03853075 -1.5127836 -3.03257035 -0.77427328 0 0 Z " fill="#D7DC2F" transform="translate(40,18)"/>
<path d="M0 0 C-1.58220587 0.96019364 -3.16581331 1.91807798 -4.75 2.875 C-6.07257812 3.67550781 -6.07257812 3.67550781 -7.421875 4.4921875 C-9.58274093 5.75596666 -11.74570395 6.91498835 -14 8 C-13.96219702 10.37233611 -13.96219702 10.37233611 -13 13 C-10.04150073 15.33414647 -10.04150073 15.33414647 -7 17 C-9 17 -11 17 -13 17 C-13.33 17.66 -13.66 18.32 -14 19 C-16 17.3125 -16 17.3125 -18 15 C-18.1875 12.4375 -18.1875 12.4375 -18 10 C-18.33 9.01 -18.66 8.02 -19 7 C-18.21625 6.5875 -17.4325 6.175 -16.625 5.75 C-13.89205358 4.27992178 -13.89205358 4.27992178 -13.1484375 1.94140625 C-12 0 -12 0 -9.6875 -0.64453125 C-8.800625 -0.69996094 -7.91375 -0.75539063 -7 -0.8125 C-6.113125 -0.88082031 -5.22625 -0.94914062 -4.3125 -1.01953125 C-2 -1 -2 -1 0 0 Z " fill="#54ACCD" transform="translate(29,23)"/>
<path d="M0 0 C0 1.98 0 3.96 0 6 C0.66 6 1.32 6 2 6 C2.36923077 11.53846154 2.36923077 11.53846154 0.5 13.875 C0.005 14.24625 -0.49 14.6175 -1 15 C-1.33 14.34 -1.66 13.68 -2 13 C-2.66 13 -3.32 13 -4 13 C-4.12375 12.030625 -4.2475 11.06125 -4.375 10.0625 C-4.684375 8.5465625 -4.684375 8.5465625 -5 7 C-5.66 6.67 -6.32 6.34 -7 6 C-7.33 6.66 -7.66 7.32 -8 8 C-8 6.68 -8 5.36 -8 4 C-8.66 3.67 -9.32 3.34 -10 3 C-6.27034861 0.96564469 -4.33094958 0 0 0 Z " fill="#C7D641" transform="translate(55,30)"/>
<path d="M0 0 C0.804375 0.309375 1.60875 0.61875 2.4375 0.9375 C6.0776663 2.02316363 9.37429648 2.40363796 13.14453125 2.65625 C14.06298828 2.82640625 14.06298828 2.82640625 15 3 C15.33 3.66 15.66 4.32 16 5 C15.01 5 14.02 5 13 5 C13.99 5.66 14.98 6.32 16 7 C16 7.66 16 8.32 16 9 C12.86427855 9.51195452 10.12034233 9.66652882 7 9 C4.14970467 6.69188041 2.01135468 4.05906997 0 1 C0 0.67 0 0.34 0 0 Z " fill="#50B5E0" transform="translate(14,38)"/>
<path d="M0 0 C0.66 0.33 1.32 0.66 2 1 C2 1.66 2 2.32 2 3 C2.66 3 3.32 3 4 3 C4 7.62 4 12.24 4 17 C3.67 16.01 3.34 15.02 3 14 C2.34 14 1.68 14 1 14 C1 12.02 1 10.04 1 8 C0.01 8 -0.98 8 -2 8 C-1.67 7.05125 -1.34 6.1025 -1 5.125 C0.10159191 2.22937548 0.10159191 2.22937548 0 0 Z " fill="#78C2B1" transform="translate(54,22)"/>
<path d="M0 0 C0.5775 0.165 1.155 0.33 1.75 0.5 C4.45033485 1.10007441 6.34161797 0.66459551 9 0 C8.01 0.495 8.01 0.495 7 1 C7.33 1.99 7.66 2.98 8 4 C5 6 5 6 2.3125 5.625 C1.549375 5.41875 0.78625 5.2125 0 5 C-0.5625 3.0625 -0.5625 3.0625 -1 1 C-0.67 0.67 -0.34 0.34 0 0 Z " fill="#737678" transform="translate(4,32)"/>
<path d="M0 0 C1.48199902 0.44909061 2.96055236 0.90956564 4.4375 1.375 C5.26121094 1.63023438 6.08492187 1.88546875 6.93359375 2.1484375 C9 3 9 3 10 5 C9.0625 7.125 9.0625 7.125 8 9 C6.84775972 8.07038578 5.70340824 7.1309875 4.5625 6.1875 C3.60537109 5.40439453 3.60537109 5.40439453 2.62890625 4.60546875 C1 3 1 3 0 0 Z " fill="#ABC85D" transform="translate(10,46)"/>
<path d="M0 0 C0.66 0 1.32 0 2 0 C1.773125 0.763125 1.54625 1.52625 1.3125 2.3125 C1.1578125 3.6428125 1.1578125 3.6428125 1 5 C2.33378575 6.8354799 2.33378575 6.8354799 4 8 C-3.4972067 7.38547486 -3.4972067 7.38547486 -5.875 5.5625 C-6.431875 4.7890625 -6.431875 4.7890625 -7 4 C-7.66 3.34 -8.32 2.68 -9 2 C-4.545 2.99 -4.545 2.99 0 4 C0 2.68 0 1.36 0 0 Z " fill="#5EA7B4" transform="translate(34,40)"/>
<path d="M0 0 C0.99 0 1.98 0 3 0 C3 1.65 3 3.3 3 5 C0.03312999 6.64826111 -2.65626525 7.44271087 -6 8 C-5.07456291 6.65826597 -4.13422595 5.32679841 -3.1875 4 C-2.66542969 3.2575 -2.14335938 2.515 -1.60546875 1.75 C-0.81076172 0.88375 -0.81076172 0.88375 0 0 Z " fill="#59B9D7" transform="translate(42,32)"/>
<path d="M0 0 C4.81430721 -0.56638908 7.20307814 1.17438373 11 4 C9 4 7 4 5 4 C4.67 4.66 4.34 5.32 4 6 C2.62437146 4.71034824 1.29233607 3.37310707 0 2 C0 1.34 0 0.68 0 0 Z " fill="#549FB9" transform="translate(11,36)"/>
<path d="M0 0 C0.66 0.33 1.32 0.66 2 1 C2 1.99 2 2.98 2 4 C-0.64 4.99 -3.28 5.98 -6 7 C-6 6.34 -6 5.68 -6 5 C-5.34 5 -4.68 5 -4 5 C-3.71125 4.360625 -3.4225 3.72125 -3.125 3.0625 C-2 1 -2 1 0 0 Z " fill="#B2CA54" transform="translate(44,51)"/>
<path d="M0 0 C0.99 0.66 1.98 1.32 3 2 C2.67 3.32 2.34 4.64 2 6 C0.68 6.33 -0.64 6.66 -2 7 C-1.34 4.69 -0.68 2.38 0 0 Z " fill="#C1C444" transform="translate(8,20)"/>
<path d="M0 0 C4.60209225 -0.17700355 6.78370866 -0.10814567 11 2 C6.545 2.495 6.545 2.495 2 3 C1.34 2.01 0.68 1.02 0 0 Z " fill="#B5C446" transform="translate(19,28)"/>
<path d="M0 0 C0 0.66 0 1.32 0 2 C-1.65 2.66 -3.3 3.32 -5 4 C-5 5.65 -5 7.3 -5 9 C-5.33 9 -5.66 9 -6 9 C-6.36521739 3.52173913 -6.36521739 3.52173913 -4.6875 1.125 C-3 0 -3 0 0 0 Z " fill="#AEC554" transform="translate(37,17)"/>
<path d="M0 0 C0 0.99 0 1.98 0 3 C-2.64 3 -5.28 3 -8 3 C-4.93882432 0.37613513 -4.26826873 0 0 0 Z " fill="#B4D259" transform="translate(26,7)"/>
</svg>
