<?xml version="1.0" encoding="UTF-8"?>
<svg version="1.1" xmlns="http://www.w3.org/2000/svg" width="64" height="64">
<path d="M0 0 C6.49395142 6.90186294 8.6689131 14.91669534 8.41796875 24.21484375 C8.1796875 26.46484375 8.1796875 26.46484375 7.1796875 28.46484375 C7.8190625 28.71234375 8.4584375 28.95984375 9.1171875 29.21484375 C11.1796875 30.46484375 11.1796875 30.46484375 11.9296875 32.58984375 C12.0121875 33.20859375 12.0946875 33.82734375 12.1796875 34.46484375 C10.1996875 34.95984375 10.1996875 34.95984375 8.1796875 35.46484375 C8.1796875 39.75484375 8.1796875 44.04484375 8.1796875 48.46484375 C6.8596875 49.12484375 5.5396875 49.78484375 4.1796875 50.46484375 C1.6142281 47.89938435 1.63922663 45.98797707 1.1796875 42.46484375 C0.8496875 42.46484375 0.5196875 42.46484375 0.1796875 42.46484375 C-0.4803125 44.77484375 -1.1403125 47.08484375 -1.8203125 49.46484375 C-3.1403125 49.46484375 -4.4603125 49.46484375 -5.8203125 49.46484375 C-6.1503125 48.47484375 -6.4803125 47.48484375 -6.8203125 46.46484375 C-7.9134375 47.12484375 -9.0065625 47.78484375 -10.1328125 48.46484375 C-15.28174688 51.03931094 -20.16551458 51.22708924 -25.8203125 50.46484375 C-28.8828125 49.02734375 -28.8828125 49.02734375 -30.8203125 47.46484375 C-31.4803125 47.13484375 -32.1403125 46.80484375 -32.8203125 46.46484375 C-33.4803125 47.78484375 -34.1403125 49.10484375 -34.8203125 50.46484375 C-36.1403125 50.13484375 -37.4603125 49.80484375 -38.8203125 49.46484375 C-39.4803125 46.82484375 -40.1403125 44.18484375 -40.8203125 41.46484375 C-40.9028125 42.57859375 -40.9853125 43.69234375 -41.0703125 44.83984375 C-41.8203125 48.46484375 -41.8203125 48.46484375 -43.7578125 49.96484375 C-45.8203125 50.46484375 -45.8203125 50.46484375 -47.8203125 49.46484375 C-47.92282922 44.33900764 -47.85621449 39.51486597 -46.8203125 34.46484375 C-48.4703125 34.13484375 -50.1203125 33.80484375 -51.8203125 33.46484375 C-51.4453125 31.52734375 -51.4453125 31.52734375 -50.8203125 29.46484375 C-49.8303125 28.96984375 -49.8303125 28.96984375 -48.8203125 28.46484375 C-48.61259079 26.30453795 -48.50557452 24.13427638 -48.4453125 21.96484375 C-47.87163781 12.53745632 -45.25322108 6.12969376 -38.8125 -0.80859375 C-27.64353771 -10.48836106 -10.96961295 -9.25119719 0 0 Z " fill="#070603" transform="translate(51.8203125,10.53515625)"/>
<path d="M0 0 C7.51224546 3.86382517 12.86158449 8.57173612 15.703125 16.66015625 C16.78148928 21.57500885 16.62166906 26.43926686 16.3125 31.4375 C15.6525 31.4375 14.9925 31.4375 14.3125 31.4375 C13.9825 29.7875 13.6525 28.1375 13.3125 26.4375 C11.6625 26.4375 10.0125 26.4375 8.3125 26.4375 C7.8175 28.9125 7.8175 28.9125 7.3125 31.4375 C6.3225 31.7675 5.3325 32.0975 4.3125 32.4375 C3.8175 27.9825 3.8175 27.9825 3.3125 23.4375 C1.3325 23.1075 -0.6475 22.7775 -2.6875 22.4375 C-2.6875 19.7975 -2.6875 17.1575 -2.6875 14.4375 C-3.3475 14.4375 -4.0075 14.4375 -4.6875 14.4375 C-4.3575 17.0775 -4.0275 19.7175 -3.6875 22.4375 C-1.7075 23.0975 0.2725 23.7575 2.3125 24.4375 C2.3125 27.7375 2.3125 31.0375 2.3125 34.4375 C-3.94836957 33.39402174 -3.94836957 33.39402174 -6.6875 31.4375 C-7.4375 28.8125 -7.4375 28.8125 -7.6875 26.4375 C-9.3375 26.4375 -10.9875 26.4375 -12.6875 26.4375 C-12.6875 28.0875 -12.6875 29.7375 -12.6875 31.4375 C-14.3375 32.0975 -15.9875 32.7575 -17.6875 33.4375 C-17.935 32.48875 -18.1825 31.54 -18.4375 30.5625 C-19.3732077 27.35056809 -19.3732077 27.35056809 -21.8125 26.0625 C-22.740625 25.753125 -22.740625 25.753125 -23.6875 25.4375 C-23.6875 23.4375 -23.6875 21.4375 -23.6875 19.4375 C-24.10475678 22.81150578 -24.10475678 22.81150578 -23.6875 26.4375 C-21.22423288 28.0821674 -21.22423288 28.0821674 -18.6875 29.4375 C-18.375 32.125 -18.375 32.125 -18.6875 34.4375 C-22.35592255 34.4375 -23.79201959 33.64720874 -26.6875 31.4375 C-27.5 28.75 -27.5 28.75 -27.6875 26.4375 C-29.3375 26.4375 -30.9875 26.4375 -32.6875 26.4375 C-33.0175 28.0875 -33.3475 29.7375 -33.6875 31.4375 C-34.3475 31.4375 -35.0075 31.4375 -35.6875 31.4375 C-35.6875 25.8275 -35.6875 20.2175 -35.6875 14.4375 C-34.6975 14.1075 -33.7075 13.7775 -32.6875 13.4375 C-32.39875 12.695 -32.11 11.9525 -31.8125 11.1875 C-30.27166405 7.42101211 -29.05777173 5.79669021 -25.6875 3.4375 C-21.65300058 3.01169531 -17.72874017 3.15858005 -13.6875 3.4375 C-13.3575 3.4375 -13.0275 3.4375 -12.6875 3.4375 C-15.6575 3.1075 -18.6275 2.7775 -21.6875 2.4375 C-15.98114907 -3.26885093 -7.26446539 -2.95632157 0 0 Z " fill="#6AB7DC" transform="translate(41.6875,6.5625)"/>
<path d="M0 0 C2.85919836 0.5086074 4.20418472 1.63733587 6.4375 3.43359375 C9.50461564 3.15476506 10.80120706 2.19112238 13.4375 0.43359375 C15.77734375 0.1328125 15.77734375 0.1328125 18.375 0.12109375 C19.22964844 0.10433594 20.08429687 0.08757813 20.96484375 0.0703125 C23.89074501 0.50018425 25.17353253 1.59899942 27.4375 3.43359375 C30.50461564 3.15476506 31.80120706 2.19112238 34.4375 0.43359375 C38.79934754 -0.19536179 42.47238104 0.00027503 46.5 1.80859375 C47.139375 2.34484375 47.77875 2.88109375 48.4375 3.43359375 C48.4375 4.09359375 48.4375 4.75359375 48.4375 5.43359375 C45.9625 4.44359375 45.9625 4.44359375 43.4375 3.43359375 C43.9325 11.84859375 43.9325 11.84859375 44.4375 20.43359375 C43.7775 20.43359375 43.1175 20.43359375 42.4375 20.43359375 C41.7775 17.79359375 41.1175 15.15359375 40.4375 12.43359375 C39.1175 12.10359375 37.7975 11.77359375 36.4375 11.43359375 C36.1075 14.40359375 35.7775 17.37359375 35.4375 20.43359375 C34.7775 20.43359375 34.1175 20.43359375 33.4375 20.43359375 C33.1075 18.78359375 32.7775 17.13359375 32.4375 15.43359375 C31.674375 15.92859375 30.91125 16.42359375 30.125 16.93359375 C27.4375 18.43359375 27.4375 18.43359375 24.4375 18.43359375 C24.1075 19.09359375 23.7775 19.75359375 23.4375 20.43359375 C22.7775 20.43359375 22.1175 20.43359375 21.4375 20.43359375 C20.9425 16.47359375 20.9425 16.47359375 20.4375 12.43359375 C19.1175 12.43359375 17.7975 12.43359375 16.4375 12.43359375 C16.1075 14.74359375 15.7775 17.05359375 15.4375 19.43359375 C14.4475 19.76359375 13.4575 20.09359375 12.4375 20.43359375 C12.57963297 18.53747941 12.72636907 16.64170981 12.875 14.74609375 C12.95621094 13.69035156 13.03742187 12.63460937 13.12109375 11.546875 C13.40201681 8.78273078 13.83906852 6.14413634 14.4375 3.43359375 C12.890625 4.26890625 12.890625 4.26890625 11.3125 5.12109375 C7.9879676 6.58361717 7.66261361 6.51954622 4 5.12109375 C3.154375 4.56421875 2.30875 4.00734375 1.4375 3.43359375 C1.581875 4.07425781 1.72625 4.71492188 1.875 5.375 C2.97785491 10.51399752 3.66589311 15.18055218 3.4375 20.43359375 C2.4475 20.10359375 1.4575 19.77359375 0.4375 19.43359375 C0.1075 17.12359375 -0.2225 14.81359375 -0.5625 12.43359375 C-1.8825 12.10359375 -3.2025 11.77359375 -4.5625 11.43359375 C-4.8925 14.40359375 -5.2225 17.37359375 -5.5625 20.43359375 C-6.2225 20.43359375 -6.8825 20.43359375 -7.5625 20.43359375 C-7.5625 14.82359375 -7.5625 9.21359375 -7.5625 3.43359375 C-8.8825 3.76359375 -10.2025 4.09359375 -11.5625 4.43359375 C-8.38787879 -0.1840371 -5.17334762 -0.0078862 0 0 Z " fill="#DFB21D" transform="translate(13.5625,38.56640625)"/>
<path d="M0 0 C1.94090826 1.94090826 1.39919435 5.47293902 1.5625 8.0625 C1.68818359 9.99802734 1.68818359 9.99802734 1.81640625 11.97265625 C1.87699219 12.97167969 1.93757813 13.97070312 2 15 C-0.52475462 16.26237731 -2.31200466 16.09856404 -5.125 16.0625 C-6.03507812 16.05347656 -6.94515625 16.04445313 -7.8828125 16.03515625 C-8.93082031 16.01775391 -8.93082031 16.01775391 -10 16 C-10.41725678 19.37400578 -10.41725678 19.37400578 -10 23 C-7.53673288 24.6446674 -7.53673288 24.6446674 -5 26 C-4.6875 28.6875 -4.6875 28.6875 -5 31 C-8.66842255 31 -10.10451959 30.20970874 -13 28 C-13.8125 25.3125 -13.8125 25.3125 -14 23 C-15.65 23 -17.3 23 -19 23 C-19.33 24.65 -19.66 26.3 -20 28 C-20.66 28 -21.32 28 -22 28 C-22 22.39 -22 16.78 -22 11 C-21.01 10.67 -20.02 10.34 -19 10 C-18.71125 9.2575 -18.4225 8.515 -18.125 7.75 C-14.5512486 -0.98583675 -8.46733533 -0.90906974 0 0 Z " fill="#11AF66" transform="translate(28,10)"/>
<path d="M0 0 C6.49395142 6.90186294 8.6689131 14.91669534 8.41796875 24.21484375 C8.1796875 26.46484375 8.1796875 26.46484375 7.1796875 28.46484375 C7.8190625 28.71234375 8.4584375 28.95984375 9.1171875 29.21484375 C11.1796875 30.46484375 11.1796875 30.46484375 11.9296875 32.58984375 C12.0121875 33.20859375 12.0946875 33.82734375 12.1796875 34.46484375 C10.1996875 34.95984375 10.1996875 34.95984375 8.1796875 35.46484375 C8.1796875 39.75484375 8.1796875 44.04484375 8.1796875 48.46484375 C6.8596875 49.12484375 5.5396875 49.78484375 4.1796875 50.46484375 C1.6142281 47.89938435 1.63922663 45.98797707 1.1796875 42.46484375 C0.8496875 42.46484375 0.5196875 42.46484375 0.1796875 42.46484375 C-0.4803125 44.77484375 -1.1403125 47.08484375 -1.8203125 49.46484375 C-3.1403125 49.46484375 -4.4603125 49.46484375 -5.8203125 49.46484375 C-6.1503125 48.47484375 -6.4803125 47.48484375 -6.8203125 46.46484375 C-7.4803125 46.46484375 -8.1403125 46.46484375 -8.8203125 46.46484375 C-8.8203125 45.80484375 -8.8203125 45.14484375 -8.8203125 44.46484375 C-8.1603125 44.13484375 -7.5003125 43.80484375 -6.8203125 43.46484375 C-6.1603125 42.47484375 -5.5003125 41.48484375 -4.8203125 40.46484375 C-4.8203125 43.10484375 -4.8203125 45.74484375 -4.8203125 48.46484375 C-4.1603125 48.46484375 -3.5003125 48.46484375 -2.8203125 48.46484375 C-2.4903125 45.49484375 -2.1603125 42.52484375 -1.8203125 39.46484375 C-0.1703125 39.79484375 1.4796875 40.12484375 3.1796875 40.46484375 C3.6746875 44.42484375 3.6746875 44.42484375 4.1796875 48.46484375 C4.8396875 48.46484375 5.4996875 48.46484375 6.1796875 48.46484375 C6.0146875 47.70171875 5.8496875 46.93859375 5.6796875 46.15234375 C5.01406601 41.24338526 5.10048672 36.41049261 5.1796875 31.46484375 C6.8296875 32.12484375 8.4796875 32.78484375 10.1796875 33.46484375 C10.1796875 32.80484375 10.1796875 32.14484375 10.1796875 31.46484375 C5.64666412 29.12521878 1.17863839 28.80584834 -3.8203125 29.46484375 C-6.0275483 30.95284747 -6.0275483 30.95284747 -7.8203125 32.46484375 C-10.4453125 32.33984375 -10.4453125 32.33984375 -12.8203125 31.46484375 C-13.4803125 30.47484375 -14.1403125 29.48484375 -14.8203125 28.46484375 C-12.5103125 29.12484375 -10.2003125 29.78484375 -7.8203125 30.46484375 C-7.8203125 27.16484375 -7.8203125 23.86484375 -7.8203125 20.46484375 C-9.4703125 20.46484375 -11.1203125 20.46484375 -12.8203125 20.46484375 C-14.8203125 18.46484375 -14.8203125 18.46484375 -15.015625 16.51953125 C-14.95052083 14.50130208 -14.88541667 12.48307292 -14.8203125 10.46484375 C-14.1603125 10.46484375 -13.5003125 10.46484375 -12.8203125 10.46484375 C-12.8203125 13.10484375 -12.8203125 15.74484375 -12.8203125 18.46484375 C-10.8403125 18.79484375 -8.8603125 19.12484375 -6.8203125 19.46484375 C-6.1603125 22.10484375 -5.5003125 24.74484375 -4.8203125 27.46484375 C-4.1603125 27.46484375 -3.5003125 27.46484375 -2.8203125 27.46484375 C-2.8409375 26.66046875 -2.8615625 25.85609375 -2.8828125 25.02734375 C-2.8203125 22.46484375 -2.8203125 22.46484375 -1.8203125 21.46484375 C0.6796875 21.33984375 0.6796875 21.33984375 3.1796875 21.46484375 C4.1796875 22.46484375 4.1796875 22.46484375 4.2421875 25.02734375 C4.2215625 25.83171875 4.2009375 26.63609375 4.1796875 27.46484375 C4.8396875 27.46484375 5.4996875 27.46484375 6.1796875 27.46484375 C5.949405 24.94082631 5.69614543 22.42259172 5.4296875 19.90234375 C5.3678125 19.19787109 5.3059375 18.49339844 5.2421875 17.76757812 C4.65477751 12.45641284 3.48044227 8.73381992 0.1796875 4.46484375 C-3.05948099 3.41063305 -3.05948099 3.41063305 -6.5703125 3.52734375 C-7.74078125 3.49769531 -8.91125 3.46804688 -10.1171875 3.4375 C-11.00921875 3.44652344 -11.90125 3.45554687 -12.8203125 3.46484375 C-12.8203125 3.13484375 -12.8203125 2.80484375 -12.8203125 2.46484375 C-9.5203125 2.13484375 -6.2203125 1.80484375 -2.8203125 1.46484375 C-10.31342135 -3.88737686 -16.6889826 -5.43898512 -25.8203125 -4.53515625 C-28.57528292 -3.59473954 -28.57528292 -3.59473954 -30.8203125 -2.53515625 C-29.5209375 -2.39078125 -28.2215625 -2.24640625 -26.8828125 -2.09765625 C-22.9453125 -1.66015625 -22.9453125 -1.66015625 -21.8203125 -0.53515625 C-21.74759509 1.8179793 -21.73660382 4.17318043 -21.7578125 6.52734375 C-21.76683594 7.81769531 -21.77585937 9.10804687 -21.78515625 10.4375 C-21.79675781 11.43652344 -21.80835937 12.43554688 -21.8203125 13.46484375 C-22.1503125 13.46484375 -22.4803125 13.46484375 -22.8203125 13.46484375 C-23.3153125 7.02984375 -23.3153125 7.02984375 -23.8203125 0.46484375 C-31.23062706 -0.48055974 -31.23062706 -0.48055974 -37.91796875 1.953125 C-39.92012843 4.32915234 -41.43357737 6.69137349 -42.8203125 9.46484375 C-43.4803125 9.46484375 -44.1403125 9.46484375 -44.8203125 9.46484375 C-43.88805264 4.24418855 -40.66003085 0.94704643 -36.8203125 -2.53515625 C-24.94526342 -9.75897293 -10.73101258 -9.04997413 0 0 Z " fill="#0A0902" transform="translate(51.8203125,10.53515625)"/>
<path d="M0 0 C12.50534021 -0.27075161 12.50534021 -0.27075161 16.0078125 2.70703125 C19.34148586 8.08682149 20.13063722 12.98137551 20.0625 19.25 C20.05347656 20.32765625 20.04445313 21.4053125 20.03515625 22.515625 C20.02355469 23.33546875 20.01195313 24.1553125 20 25 C19.34 25 18.68 25 18 25 C17.505 22.525 17.505 22.525 17 20 C15.35 20 13.7 20 12 20 C11.67 21.65 11.34 23.3 11 25 C10.01 25.33 9.02 25.66 8 26 C7.67 23.03 7.34 20.06 7 17 C5.02 16.67 3.04 16.34 1 16 C0.855625 14.7625 0.71125 13.525 0.5625 12.25 C0.28891505 9.99788038 -0.01702544 7.93870843 -0.625 5.75 C-1.09236231 3.56897588 -0.58851204 2.12567036 0 0 Z " fill="#13B66A" transform="translate(38,13)"/>
<path d="M0 0 C2.92045195 0.49642402 4.89634796 1.46850958 7.16015625 3.3671875 C7.16015625 4.0271875 7.16015625 4.6871875 7.16015625 5.3671875 C5.51015625 4.7071875 3.86015625 4.0471875 2.16015625 3.3671875 C2.65515625 11.7821875 2.65515625 11.7821875 3.16015625 20.3671875 C2.50015625 20.3671875 1.84015625 20.3671875 1.16015625 20.3671875 C0.50015625 17.7271875 -0.15984375 15.0871875 -0.83984375 12.3671875 C-2.15984375 12.0371875 -3.47984375 11.7071875 -4.83984375 11.3671875 C-5.16984375 14.3371875 -5.49984375 17.3071875 -5.83984375 20.3671875 C-6.49984375 20.3671875 -7.15984375 20.3671875 -7.83984375 20.3671875 C-8.16984375 18.7171875 -8.49984375 17.0671875 -8.83984375 15.3671875 C-9.60296875 15.8621875 -10.36609375 16.3571875 -11.15234375 16.8671875 C-13.83984375 18.3671875 -13.83984375 18.3671875 -16.83984375 18.3671875 C-17.17761059 16.6180378 -17.50988046 14.86782605 -17.83984375 13.1171875 C-18.02546875 12.14265625 -18.21109375 11.168125 -18.40234375 10.1640625 C-18.83984375 7.3671875 -18.83984375 7.3671875 -18.83984375 3.3671875 C-16.52984375 4.0271875 -14.21984375 4.6871875 -11.83984375 5.3671875 C-11.20046875 4.5421875 -10.56109375 3.7171875 -9.90234375 2.8671875 C-6.26269502 -0.10395432 -4.53899429 -0.25763907 0 0 Z " fill="#DFB31D" transform="translate(54.83984375,38.6328125)"/>
<path d="M0 0 C5.12598463 5.44796859 8.40305989 12.56754498 8.4296875 20.08984375 C8.3471875 21.20359375 8.2646875 22.31734375 8.1796875 23.46484375 C7.1896875 23.95984375 7.1896875 23.95984375 6.1796875 24.46484375 C6.08171875 23.60761719 5.98375 22.75039063 5.8828125 21.8671875 C4.94693226 12.31936832 4.94693226 12.31936832 0.1796875 4.46484375 C-4.16643785 3.58700183 -8.39470354 3.42007603 -12.8203125 3.46484375 C-12.8203125 3.13484375 -12.8203125 2.80484375 -12.8203125 2.46484375 C-9.5203125 2.13484375 -6.2203125 1.80484375 -2.8203125 1.46484375 C-10.31342135 -3.88737686 -16.6889826 -5.43898512 -25.8203125 -4.53515625 C-28.57528292 -3.59473954 -28.57528292 -3.59473954 -30.8203125 -2.53515625 C-29.5209375 -2.39078125 -28.2215625 -2.24640625 -26.8828125 -2.09765625 C-22.9453125 -1.66015625 -22.9453125 -1.66015625 -21.8203125 -0.53515625 C-21.74759509 1.8179793 -21.73660382 4.17318043 -21.7578125 6.52734375 C-21.76683594 7.81769531 -21.77585937 9.10804687 -21.78515625 10.4375 C-21.79675781 11.43652344 -21.80835937 12.43554688 -21.8203125 13.46484375 C-22.1503125 13.46484375 -22.4803125 13.46484375 -22.8203125 13.46484375 C-23.3153125 7.02984375 -23.3153125 7.02984375 -23.8203125 0.46484375 C-31.23062706 -0.48055974 -31.23062706 -0.48055974 -37.91796875 1.953125 C-39.92012843 4.32915234 -41.43357737 6.69137349 -42.8203125 9.46484375 C-43.4803125 9.46484375 -44.1403125 9.46484375 -44.8203125 9.46484375 C-43.88805264 4.24418855 -40.66003085 0.94704643 -36.8203125 -2.53515625 C-24.94526342 -9.75897293 -10.73101258 -9.04997413 0 0 Z " fill="#020706" transform="translate(51.8203125,10.53515625)"/>
<path d="M0 0 C1.37478516 0.01740234 1.37478516 0.01740234 2.77734375 0.03515625 C3.69644531 0.04417969 4.61554687 0.05320312 5.5625 0.0625 C6.27277344 0.07410156 6.98304687 0.08570312 7.71484375 0.09765625 C7.71484375 0.42765625 7.71484375 0.75765625 7.71484375 1.09765625 C3.25984375 1.59265625 3.25984375 1.59265625 -1.28515625 2.09765625 C-1.70296504 4.47071203 -1.70296504 4.47071203 -1.28515625 7.09765625 C0.35116267 8.14657863 2.01970238 9.14672328 3.71484375 10.09765625 C4.52734375 12.28515625 4.52734375 12.28515625 4.71484375 14.09765625 C7.93889353 12.42810806 7.93889353 12.42810806 8.40234375 9.47265625 C8.50546875 8.68890625 8.60859375 7.90515625 8.71484375 7.09765625 C10.36484375 7.09765625 12.01484375 7.09765625 13.71484375 7.09765625 C14.77734375 8.97265625 14.77734375 8.97265625 15.71484375 11.09765625 C15.38484375 11.75765625 15.05484375 12.41765625 14.71484375 13.09765625 C15.37484375 13.42765625 16.03484375 13.75765625 16.71484375 14.09765625 C16.039375 14.13503906 15.36390625 14.17242187 14.66796875 14.2109375 C13.7759375 14.27667969 12.88390625 14.34242187 11.96484375 14.41015625 C11.083125 14.46816406 10.20140625 14.52617188 9.29296875 14.5859375 C6.37915667 15.16428505 5.00012788 16.26348026 2.71484375 18.09765625 C-0.35227189 17.81882756 -1.64886331 16.85518488 -4.28515625 15.09765625 C-6.33436565 14.64626166 -6.33436565 14.64626166 -8.47265625 14.47265625 C-9.73078125 14.34890625 -10.98890625 14.22515625 -12.28515625 14.09765625 C-12.32769981 12.09810879 -12.32596408 10.09723989 -12.28515625 8.09765625 C-11.28515625 7.09765625 -11.28515625 7.09765625 -8.78515625 6.97265625 C-6.28515625 7.09765625 -6.28515625 7.09765625 -5.28515625 8.09765625 C-5.24451793 9.7638274 -5.24243525 11.4315372 -5.28515625 13.09765625 C-4.50140625 13.40703125 -3.71765625 13.71640625 -2.91015625 14.03515625 C-0.28515625 15.09765625 -0.28515625 15.09765625 1.71484375 16.09765625 C2.13265254 13.72460047 2.13265254 13.72460047 1.71484375 11.09765625 C0.88984375 10.64390625 0.06484375 10.19015625 -0.78515625 9.72265625 C-1.61015625 9.18640625 -2.43515625 8.65015625 -3.28515625 8.09765625 C-3.66015625 4.47265625 -3.66015625 4.47265625 -3.28515625 1.09765625 C-2.28515625 0.09765625 -2.28515625 0.09765625 0 0 Z " fill="#141F19" transform="translate(20.28515625,24.90234375)"/>
<path d="M0 0 C2.38564077 0.57584432 4.66682784 1.22227595 7 2 C7.99 1.34 8.98 0.68 10 0 C10.99 0 11.98 0 13 0 C12.88529863 1.75070517 12.75780972 3.50057536 12.625 5.25 C12.55539063 6.22453125 12.48578125 7.1990625 12.4140625 8.203125 C12.01534751 10.89633189 11.36492937 12.66963279 10 15 C3.3681795 13.08414074 3.3681795 13.08414074 1 10 C0.48828125 7.51953125 0.48828125 7.51953125 0.3125 4.8125 C0.24675781 3.91144531 0.18101563 3.01039062 0.11328125 2.08203125 C0.07589844 1.39496094 0.03851563 0.70789062 0 0 Z " fill="#272F22" transform="translate(15,42)"/>
<path d="M0 0 C0.66 0 1.32 0 2 0 C2 2.64 2 5.28 2 8 C4.97 8.495 4.97 8.495 8 9 C8.66 11.64 9.32 14.28 10 17 C10.66 17 11.32 17 12 17 C11.979375 16.195625 11.95875 15.39125 11.9375 14.5625 C12 12 12 12 13 11 C14.66617115 10.95936168 16.33388095 10.957279 18 11 C18.33 11.66 18.66 12.32 19 13 C18.3125 15.0625 18.3125 15.0625 17 17 C15.67851173 17.37756808 14.34164079 17.7018576 13 18 C12.030625 18.70125 11.06125 19.4025 10.0625 20.125 C7 22 7 22 4.25 21.9375 C2 21 2 21 0 18 C2.31 18.66 4.62 19.32 7 20 C7 16.7 7 13.4 7 10 C5.35 10 3.7 10 2 10 C0 8 0 8 -0.1953125 6.0546875 C-0.13020833 4.03645833 -0.06510417 2.01822917 0 0 Z " fill="#18342A" transform="translate(37,21)"/>
<path d="M0 0 C1.3921875 0.2784375 1.3921875 0.2784375 2.8125 0.5625 C6.01343771 1.24123881 6.01343771 1.24123881 9 0 C9.30347349 7.89031079 9.30347349 7.89031079 7 11 C4.3794668 12.69066658 3.17370278 13 0 13 C-0.19551338 11.39679026 -0.38111983 9.79237014 -0.5625 8.1875 C-0.71912109 6.84751953 -0.71912109 6.84751953 -0.87890625 5.48046875 C-1 3 -1 3 0 0 Z " fill="#5BA7C8" transform="translate(38,44)"/>
<path d="M0 0 C1.67542976 0.28604898 3.34385343 0.61781233 5 1 C5 3.64 5 6.28 5 9 C5.66 9 6.32 9 7 9 C7 6.36 7 3.72 7 1 C7.33 1 7.66 1 8 1 C8 2.98 8 4.96 8 7 C9.65 6.67 11.3 6.34 13 6 C13 6.66 13 7.32 13 8 C7.76579213 11.27137992 4.83394389 11.10643764 -1 10 C-1.02689216 8.52093108 -1.04634621 7.04172517 -1.0625 5.5625 C-1.07410156 4.73878906 -1.08570312 3.91507813 -1.09765625 3.06640625 C-1 1 -1 1 0 0 Z " fill="#131610" transform="translate(30,50)"/>
<path d="M0 0 C0.33 0 0.66 0 1 0 C1 4.95 1 9.9 1 15 C1.66 15.33 2.32 15.66 3 16 C1.68 16.99 0.36 17.98 -1 19 C-0.01 18.67 0.98 18.34 2 18 C2 21.3 2 24.6 2 28 C1.67 28 1.34 28 1 28 C0.9071875 26.824375 0.9071875 26.824375 0.8125 25.625 C0.544375 24.75875 0.27625 23.8925 0 23 C-2.47636012 21.62533375 -2.47636012 21.62533375 -5 21 C-4.625 19.0625 -4.625 19.0625 -4 17 C-3.34 16.67 -2.68 16.34 -2 16 C-1.56767853 12.79116605 -1.56767853 12.79116605 -1.4375 9.0625 C-1.09491525 2.18983051 -1.09491525 2.18983051 0 0 Z " fill="#03180F" transform="translate(5,23)"/>
<path d="M0 0 C0.33 0 0.66 0 1 0 C0.67 4.29 0.34 8.58 0 13 C-6 11 -6 11 -7 10 C-7.04063832 8.33382885 -7.042721 6.66611905 -7 5 C-5.824375 4.87625 -5.824375 4.87625 -4.625 4.75 C-1.85250896 4.27193661 -1.85250896 4.27193661 -0.6875 1.9375 C-0.460625 1.298125 -0.23375 0.65875 0 0 Z " fill="#62B2D6" transform="translate(25,44)"/>
<path d="M0 0 C1 1 1 1 1.09765625 4.16015625 C1.08605469 5.44792969 1.07445313 6.73570313 1.0625 8.0625 C1.05347656 9.35285156 1.04445313 10.64320312 1.03515625 11.97265625 C1.02355469 12.97167969 1.01195313 13.97070312 1 15 C0.67 15 0.34 15 0 15 C-0.495 8.565 -0.495 8.565 -1 2 C-8.41031456 1.05459651 -8.41031456 1.05459651 -15.09765625 3.48828125 C-17.09981593 5.86430859 -18.61326487 8.22652974 -20 11 C-20.66 11 -21.32 11 -22 11 C-21.11299243 6.21649487 -18.49419182 3.26295854 -15 0 C-10.51928518 -1.99142881 -4.75086777 -0.79181129 0 0 Z " fill="#04150F" transform="translate(29,9)"/>
<path d="M0 0 C1.2065625 0.0309375 1.2065625 0.0309375 2.4375 0.0625 C3.0975 2.3725 3.7575 4.6825 4.4375 7.0625 C1.7975 7.0625 -0.8425 7.0625 -3.5625 7.0625 C-3.60504356 5.06295254 -3.60330783 3.06208364 -3.5625 1.0625 C-2.5625 0.0625 -2.5625 0.0625 0 0 Z " fill="#131A13" transform="translate(11.5625,31.9375)"/>
<path d="M0 0 C1.75 0.0625 1.75 0.0625 4 1 C7.82989187 6.21290838 8.44857564 9.60779712 8 16 C5.09916946 14.54958473 5.02505692 12.7106171 4 9.6875 C2.85036229 6.32391153 1.67103808 3.14065639 0 0 Z " fill="#40D38C" transform="translate(49,14)"/>
<path d="M0 0 C0.66 0 1.32 0 2 0 C5 3.46153846 5 3.46153846 5 6 C4.34 6 3.68 6 3 6 C2.67 6.99 2.34 7.98 2 9 C1.01 8.67 0.02 8.34 -1 8 C-1 7.34 -1 6.68 -1 6 C-1.66 6 -2.32 6 -3 6 C-2 4 -1 2 0 0 Z " fill="#110D02" transform="translate(56,5)"/>
<path d="M0 0 C0.66 0 1.32 0 2 0 C5 3.46153846 5 3.46153846 5 6 C4.34 6 3.68 6 3 6 C2.67 6.99 2.34 7.98 2 9 C1.01 8.67 0.02 8.34 -1 8 C-1 7.34 -1 6.68 -1 6 C-1.66 6 -2.32 6 -3 6 C-2 4 -1 2 0 0 Z " fill="#110D02" transform="translate(6,5)"/>
<path d="M0 0 C5.74389224 -0.34463353 10.04518673 -0.34449896 15 3 C15.33 3.99 15.66 4.98 16 6 C15.34773438 5.79503906 14.69546875 5.59007812 14.0234375 5.37890625 C9.36525534 3.94297694 4.84850242 2.63796084 0 2 C0 1.34 0 0.68 0 0 Z " fill="#93CBEB" transform="translate(31,6)"/>
<path d="M0 0 C2 0 2 0 3.5 1.4375 C3.995 1.953125 4.49 2.46875 5 3 C5.66 3.33 6.32 3.66 7 4 C7 4.66 7 5.32 7 6 C5.68 6.33 4.36 6.66 3 7 C3 8.65 3 10.3 3 12 C0.50494038 9.50494038 0.64051624 8.32671112 0.375 4.875 C0.30023438 3.96492188 0.22546875 3.05484375 0.1484375 2.1171875 C0.09945313 1.41851562 0.05046875 0.71984375 0 0 Z " fill="#22613D" transform="translate(15,42)"/>
<path d="M0 0 C1.051875 0.37125 2.10375 0.7425 3.1875 1.125 C7.18632214 2.04276246 8.49128216 1.91384609 12 0 C12 2.64 12 5.28 12 8 C11.67 8 11.34 8 11 8 C11 6.02 11 4.04 11 2 C10.01 2.66 9.02 3.32 8 4 C6.33178677 3.67449498 4.66500443 3.34153937 3 3 C2.34 3.66 1.68 4.32 1 5 C0.67 3.35 0.34 1.7 0 0 Z " fill="#19231E" transform="translate(36,42)"/>
<path d="M0 0 C0.33 0 0.66 0 1 0 C1 3.96 1 7.92 1 12 C0.34 12 -0.32 12 -1 12 C-1.0825 11.21625 -1.165 10.4325 -1.25 9.625 C-1.72806339 6.85250896 -1.72806339 6.85250896 -4.0625 5.6875 C-4.701875 5.460625 -5.34125 5.23375 -6 5 C-4.35 4.67 -2.7 4.34 -1 4 C-0.67 2.68 -0.34 1.36 0 0 Z " fill="#109A60" transform="translate(57,26)"/>
<path d="M0 0 C0.33 0 0.66 0 1 0 C1.33 4.62 1.66 9.24 2 14 C-1.2830098 15.6415049 -4.42545033 14.51888624 -8 14 C-8 13.67 -8 13.34 -8 13 C-5.36 13 -2.72 13 0 13 C0 8.71 0 4.42 0 0 Z " fill="#139B5D" transform="translate(28,11)"/>
<path d="M0 0 C0.66 0 1.32 0 2 0 C2.33 2.31 2.66 4.62 3 7 C1.68 7 0.36 7 -1 7 C-1.04254356 5.00045254 -1.04080783 2.99958364 -1 1 C-0.67 0.67 -0.34 0.34 0 0 Z " fill="#51A0C2" transform="translate(31,51)"/>
<path d="M0 0 C0.78375 0.33 1.5675 0.66 2.375 1 C4.84332497 2.11866511 4.84332497 2.11866511 7 2 C6.67 3.65 6.34 5.3 6 7 C4.02 7 2.04 7 0 7 C0 6.67 0 6.34 0 6 C1.65 6 3.3 6 5 6 C5 5.34 5 4.68 5 4 C2.525 3.01 2.525 3.01 0 2 C0 1.34 0 0.68 0 0 Z " fill="#132117" transform="translate(17,42)"/>
<path d="M0 0 C1.485 0.99 1.485 0.99 3 2 C2.67 4.31 2.34 6.62 2 9 C1.34 9 0.68 9 0 9 C0 6.03 0 3.06 0 0 Z " fill="#BF9919" transform="translate(47,50)"/>
<path d="M0 0 C1.98 0.495 1.98 0.495 4 1 C3.67 2.32 3.34 3.64 3 5 C1.68 4.67 0.36 4.34 -1 4 C-0.67 2.68 -0.34 1.36 0 0 Z " fill="#DA9C87" transform="translate(51,33)"/>
<path d="M0 0 C0 3.3 0 6.6 0 10 C-0.33 10 -0.66 10 -1 10 C-1.103125 9.236875 -1.20625 8.47375 -1.3125 7.6875 C-2.04364039 4.82940576 -2.76951913 3.84257115 -5 2 C-1.125 0 -1.125 0 0 0 Z " fill="#261F05" transform="translate(7,41)"/>
<path d="M0 0 C0.598125 0.20625 1.19625 0.4125 1.8125 0.625 C0.575 1.2746875 0.575 1.2746875 -0.6875 1.9375 C-1.925 2.7728125 -1.925 2.7728125 -3.1875 3.625 C-3.1875 4.615 -3.1875 5.605 -3.1875 6.625 C-4.1775 6.295 -5.1675 5.965 -6.1875 5.625 C-5.875 3.75 -5.875 3.75 -5.1875 1.625 C-2.1875 -0.375 -2.1875 -0.375 0 0 Z " fill="#070601" transform="translate(6.1875,38.375)"/>
<path d="M0 0 C0.33 0 0.66 0 1 0 C1 1.98 1 3.96 1 6 C2.65 5.67 4.3 5.34 6 5 C6 5.66 6 6.32 6 7 C4.02 7.66 2.04 8.32 0 9 C0 6.03 0 3.06 0 0 Z " fill="#161205" transform="translate(37,51)"/>
<path d="M0 0 C1.98 0.495 1.98 0.495 4 1 C3.34 2.32 2.68 3.64 2 5 C1.01 4.67 0.02 4.34 -1 4 C-0.67 2.68 -0.34 1.36 0 0 Z " fill="#E4A38D" transform="translate(10,33)"/>
<path d="M0 0 C0.99 0 1.98 0 3 0 C2.67 2.64 2.34 5.28 2 8 C1.34 8 0.68 8 0 8 C0 5.36 0 2.72 0 0 Z " fill="#C59D1A" transform="translate(6,51)"/>
<path d="M0 0 C1.32 0 2.64 0 4 0 C3.67 1.65 3.34 3.3 3 5 C2.01 4.67 1.02 4.34 0 4 C0 2.68 0 1.36 0 0 Z " fill="#E7A690" transform="translate(30,33)"/>
<path d="M0 0 C2.875 0.75 2.875 0.75 6 2 C6.66 3.32 7.32 4.64 8 6 C3.545 4.02 3.545 4.02 -1 2 C-0.67 1.34 -0.34 0.68 0 0 Z " fill="#070D10" transform="translate(41,5)"/>
</svg>
