<?xml version="1.0" encoding="UTF-8"?>
<svg version="1.1" xmlns="http://www.w3.org/2000/svg" width="64" height="64">
<path d="M0 0 C5.56340585 3.36669624 9.53349183 8.25193794 11.5 14.4375 C12.36165304 22.82358835 11.90331179 29.25780286 7.5 36.4375 C6.31341284 39.3298062 6.20937417 40.68863158 7.33984375 43.6015625 C8.05670329 45.16793886 8.80567263 46.72012069 9.58984375 48.25390625 C10.5 50.4375 10.5 50.4375 10.5 54.4375 C7.53 53.7775 4.56 53.1175 1.5 52.4375 C0.84 54.4175 0.18 56.3975 -0.5 58.4375 C-1.49 58.4375 -2.48 58.4375 -3.5 58.4375 C-4.34026396 56.66994474 -5.17198722 54.89832737 -6 53.125 C-6.69609375 51.64580078 -6.69609375 51.64580078 -7.40625 50.13671875 C-8.5 47.4375 -8.5 47.4375 -8.5 44.4375 C-10.48 44.4375 -12.46 44.4375 -14.5 44.4375 C-14.66822266 45.51064453 -14.66822266 45.51064453 -14.83984375 46.60546875 C-15.54456005 49.62865998 -16.63287798 52.00072688 -18.0625 54.75 C-18.51753906 55.63300781 -18.97257812 56.51601563 -19.44140625 57.42578125 C-19.79074219 58.08964844 -20.14007813 58.75351562 -20.5 59.4375 C-23.5 57.4375 -23.5 57.4375 -24.1875 54.8125 C-24.290625 54.02875 -24.39375 53.245 -24.5 52.4375 C-27.47 53.0975 -30.44 53.7575 -33.5 54.4375 C-33.06370324 50.85986661 -32.3824396 48.17977142 -30.875 44.875 C-29.38051834 41.13879585 -29.15014892 40.12709296 -30.5 36.4375 C-30.8196875 35.9115625 -31.139375 35.385625 -31.46875 34.84375 C-35.3451652 28.30922152 -35.34377879 21.88363034 -34.5 14.4375 C-32.83975359 8.22876787 -28.81992715 3.91038383 -23.5 0.4375 C-16.6484373 -2.96497672 -7.00474452 -3.15687713 0 0 Z " fill="#FFCA3C" transform="translate(43.5,3.5625)"/>
<path d="M0 0 C5.1180741 2.83373594 8.67328263 6.6591077 10.76171875 12.1484375 C11.77868241 17.39163541 11.36203071 21.7644557 8.76171875 26.4609375 C5.28003693 31.2689743 1.20292217 34.48098628 -4.6953125 35.625 C-10.10058854 35.94051534 -14.08134994 34.93664638 -18.4765625 31.75390625 C-23.04881059 27.58717905 -25.49909157 23.3875818 -25.86328125 17.1484375 C-25.49909157 10.9092932 -23.04881059 6.70969595 -18.4765625 2.54296875 C-12.77956871 -1.58244054 -6.63032699 -2.52253278 0 0 Z " fill="#FEE852" transform="translate(39.23828125,7.8515625)"/>
<path d="M0 0 C0.99 0.33 1.98 0.66 3 1 C3.33 2.98 3.66 4.96 4 7 C6.64 7 9.28 7 12 7 C12 10 12 10 10.625 11.6875 C9 13 9 13 7 13 C7.33 15.97 7.66 18.94 8 22 C7.2575 21.67 6.515 21.34 5.75 21 C2.86116688 19.77217129 2.86116688 19.77217129 -1 20 C-1.99 20.66 -2.98 21.32 -4 22 C-4.99 22 -5.98 22 -7 22 C-6.86980469 21.39671875 -6.73960938 20.7934375 -6.60546875 20.171875 C-6.18039828 17.70884987 -5.87912321 15.49955925 -6 13 C-8.30068019 10.50789479 -8.30068019 10.50789479 -11 9 C-11 8.34 -11 7.68 -11 7 C-8.03 7 -5.06 7 -2 7 C-1.855625 6.21625 -1.71125 5.4325 -1.5625 4.625 C-1 2 -1 2 0 0 Z " fill="#FEAD2D" transform="translate(31,14)"/>
<path d="M0 0 C0.84212256 1.91282125 1.67338864 3.83042473 2.5 5.75 C2.9640625 6.81734375 3.428125 7.8846875 3.90625 8.984375 C5 12 5 12 5 16 C2.03 15.34 -0.94 14.68 -4 14 C-4.66 15.98 -5.32 17.96 -6 20 C-6.99 20 -7.98 20 -9 20 C-9.84026396 18.23244474 -10.67198722 16.46082737 -11.5 14.6875 C-11.9640625 13.70136719 -12.428125 12.71523438 -12.90625 11.69921875 C-14 9 -14 9 -14 6 C-12.04414675 4.99515796 -10.08523763 3.99626195 -8.125 3 C-6.48917969 2.1646875 -6.48917969 2.1646875 -4.8203125 1.3125 C-2 0 -2 0 0 0 Z " fill="#FF5756" transform="translate(49,42)"/>
<path d="M0 0 C3.30596639 1.30359598 6.56917749 2.67276604 9.8125 4.125 C10.60269531 4.47820313 11.39289062 4.83140625 12.20703125 5.1953125 C12.79871094 5.46085937 13.39039062 5.72640625 14 6 C13.39644592 9.85025879 12.23227397 12.86101159 10.4375 16.3125 C9.98246094 17.19550781 9.52742188 18.07851563 9.05859375 18.98828125 C8.70925781 19.65214844 8.35992187 20.31601562 8 21 C5 19 5 19 4.3125 16.375 C4.209375 15.59125 4.10625 14.8075 4 14 C1.03 14.66 -1.94 15.32 -5 16 C-4.39363767 10.23955788 -2.24341721 5.27985631 0 0 Z " fill="#FF5857" transform="translate(15,42)"/>
</svg>
