<?xml version="1.0" encoding="UTF-8"?>
<svg version="1.1" xmlns="http://www.w3.org/2000/svg" width="64" height="64">
<path d="M0 0 C0.87078186 -0.00807175 1.74156372 -0.01614349 2.63873291 -0.02445984 C4.48472094 -0.03830382 6.3307346 -0.04902457 8.17675781 -0.05688477 C10.99073335 -0.07406676 13.80352452 -0.11794543 16.6171875 -0.16210938 C18.4114497 -0.17223915 20.20572189 -0.18075436 22 -0.1875 C23.25656403 -0.21376213 23.25656403 -0.21376213 24.53851318 -0.24055481 C30.7553306 -0.2176461 34.40363975 1.39669019 38.91015625 5.87109375 C43.05969575 11.17251211 43.44610442 14.35432684 43.50390625 20.97265625 C43.511978 21.84343811 43.52004974 22.71421997 43.52836609 23.61138916 C43.54221007 25.45737719 43.55293082 27.30339085 43.56079102 29.14941406 C43.57797301 31.9633896 43.62185168 34.77618077 43.66601562 37.58984375 C43.6761454 39.38410595 43.68466061 41.17837814 43.69140625 42.97265625 C43.70891434 43.8103656 43.72642242 44.64807495 43.74446106 45.51116943 C43.72155235 51.72798685 42.10721606 55.376296 37.6328125 59.8828125 C32.33139414 64.032352 29.14957941 64.41876067 22.53125 64.4765625 C21.66046814 64.48463425 20.78968628 64.49270599 19.89251709 64.50102234 C18.04652906 64.51486632 16.2005154 64.52558707 14.35449219 64.53344727 C11.54051665 64.55062926 8.72772548 64.59450793 5.9140625 64.63867188 C4.1198003 64.64880165 2.32552811 64.65731686 0.53125 64.6640625 C-0.72531403 64.69032463 -0.72531403 64.69032463 -2.00726318 64.71711731 C-8.2240806 64.6942086 -11.87238975 63.07987231 -16.37890625 58.60546875 C-20.52844575 53.30405039 -20.91485442 50.12223566 -20.97265625 43.50390625 C-20.980728 42.63312439 -20.98879974 41.76234253 -20.99711609 40.86517334 C-21.01096007 39.01918531 -21.02168082 37.17317165 -21.02954102 35.32714844 C-21.04672301 32.5131729 -21.09060168 29.70038173 -21.13476562 26.88671875 C-21.1448954 25.09245655 -21.15341061 23.29818436 -21.16015625 21.50390625 C-21.17766434 20.6661969 -21.19517242 19.82848755 -21.21321106 18.96539307 C-21.19030235 12.74857565 -19.57596606 9.1002665 -15.1015625 4.59375 C-9.80014414 0.4442105 -6.61832941 0.05780183 0 0 Z " fill="#2492FF" transform="translate(20.734375,-0.23828125)"/>
<path d="M0 0 C1.32278481 5.41139241 1.32278481 5.41139241 -0.0625 7.9375 C-2.91093248 9.49954362 -4.93504903 8.74921024 -8 8 C-9.32278481 2.58860759 -9.32278481 2.58860759 -7.9375 0.0625 C-5.08906752 -1.49954362 -3.06495097 -0.74921024 0 0 Z " fill="#F3F9FF" transform="translate(51,28)"/>
<path d="M0 0 C1.32278481 5.41139241 1.32278481 5.41139241 -0.0625 7.9375 C-2.91093248 9.49954362 -4.93504903 8.74921024 -8 8 C-9.32278481 2.58860759 -9.32278481 2.58860759 -7.9375 0.0625 C-5.08906752 -1.49954362 -3.06495097 -0.74921024 0 0 Z " fill="#F3F9FF" transform="translate(36,28)"/>
<path d="M0 0 C1.32278481 5.41139241 1.32278481 5.41139241 -0.0625 7.9375 C-2.91093248 9.49954362 -4.93504903 8.74921024 -8 8 C-9.32278481 2.58860759 -9.32278481 2.58860759 -7.9375 0.0625 C-5.08906752 -1.49954362 -3.06495097 -0.74921024 0 0 Z " fill="#F3F9FF" transform="translate(21,28)"/>
</svg>
